ply
format ascii 1.0
comment Created by Blender3D 249 - www.blender.org, source file: 
element vertex 507
property float x
property float y
property float z
property float nx
property float ny
property float nz
element face 968
property list uchar uint vertex_indices
end_header
0.351562 0.242188 0.828125 0.189764 -0.003571 0.981811 
0.445312 0.156250 0.781250 0.646809 -0.758202 0.082095 
0.476562 0.242188 0.773438 0.999573 -0.014496 -0.024445 
-0.476562 0.242188 0.773438 -0.999573 -0.014496 -0.024445 
-0.445312 0.156250 0.781250 -0.646809 -0.758202 0.082095 
-0.351562 0.242188 0.828125 -0.189764 -0.003571 0.981811 
0.351562 0.117188 0.804688 -0.085788 -0.982971 0.162389 
-0.351562 0.117188 0.804688 0.085788 -0.982971 0.162389 
0.265625 0.156250 0.820312 -0.744835 -0.623768 0.236824 
-0.265625 0.156250 0.820312 0.744835 -0.623768 0.236824 
0.226562 0.242188 0.820312 -0.870968 -0.014710 0.491104 
-0.226562 0.242188 0.820312 0.870968 -0.014710 0.491104 
0.265625 0.335938 0.820312 -0.758354 0.606128 0.239692 
-0.265625 0.335938 0.820312 0.758354 0.606128 0.239692 
0.351562 0.375000 0.804688 -0.085788 0.982513 0.165105 
-0.351562 0.375000 0.804688 0.085788 0.982513 0.165105 
0.445312 0.335938 0.781250 0.655141 0.750633 0.085574 
-0.445312 0.335938 0.781250 -0.655141 0.750633 0.085574 
0.093750 -0.750000 0.664062 -0.349284 -0.719932 0.599719 
0.046875 -0.851562 0.632812 -0.173681 0.215735 0.960845 
0.093750 -0.812500 0.640625 -0.809839 0.388287 0.439741 
-0.093750 -0.812500 0.640625 0.809839 0.388287 0.439741 
-0.046875 -0.851562 0.632812 0.173681 0.215735 0.960845 
-0.093750 -0.750000 0.664062 0.349284 -0.719932 0.599719 
0.000000 0.406250 0.601562 0.000000 0.794183 0.607654 
0.109375 0.460938 0.609375 -0.508652 0.858119 -0.069887 
0.000000 0.570312 0.570312 0.000000 0.487075 0.873348 
-0.109375 0.460938 0.609375 0.508652 0.858119 -0.069887 
0.218750 -0.281250 0.429688 0.981414 -0.186682 0.043947 
0.210938 -0.390625 0.164062 0.569811 -0.821711 0.007813 
0.406250 -0.171875 0.148438 0.563463 -0.814570 0.137669 
-0.406250 -0.171875 0.148438 -0.563463 -0.814570 0.137669 
-0.210938 -0.390625 0.164062 -0.569811 -0.821711 0.007813 
-0.218750 -0.281250 0.429688 -0.981414 -0.186682 0.043947 
0.437500 -0.093750 0.468750 0.475845 -0.876247 0.075381 
0.203125 -0.171875 0.500000 0.850520 -0.525529 -0.020692 
0.210938 -0.226562 0.468750 0.876949 -0.163823 0.451766 
-0.210938 -0.226562 0.468750 -0.876949 -0.163823 0.451766 
-0.203125 -0.171875 0.500000 -0.850520 -0.525529 -0.020692 
-0.437500 -0.093750 0.468750 -0.475845 -0.876247 0.075381 
0.335938 0.054688 -0.664062 0.448286 -0.367870 -0.814661 
0.484375 0.023438 -0.546875 0.530534 -0.539445 -0.653829 
0.343750 -0.148438 -0.539062 0.513077 -0.674673 -0.530595 
-0.343750 -0.148438 -0.539062 -0.513077 -0.674673 -0.530595 
-0.484375 0.023438 -0.546875 -0.530534 -0.539445 -0.653829 
-0.335938 0.054688 -0.664062 -0.448286 -0.367870 -0.814661 
0.726562 0.000000 -0.070312 0.888180 -0.439955 -0.132389 
0.718750 -0.023438 -0.171875 0.588519 0.226966 0.775933 
0.718750 0.039062 -0.187500 0.911527 -0.115268 0.394665 
-0.718750 0.039062 -0.187500 -0.911527 -0.115268 0.394665 
-0.718750 -0.023438 -0.171875 -0.588519 0.226966 0.775933 
-0.726562 0.000000 -0.070312 -0.888180 -0.439955 -0.132389 
1.039062 0.328125 -0.414062 0.468886 -0.304727 0.829005 
1.085938 0.273438 -0.390625 0.251564 0.260781 0.932005 
1.187500 0.343750 -0.484375 -0.003082 -0.330882 0.943632 
-1.187500 0.343750 -0.484375 0.003082 -0.330882 0.943632 
-1.085938 0.273438 -0.390625 -0.251564 0.260781 0.932005 
-1.039062 0.328125 -0.414062 -0.468886 -0.304727 0.829005 
1.250000 0.468750 -0.546875 0.473067 0.578997 -0.664022 
1.367188 0.296875 -0.500000 0.992462 0.028626 -0.118900 
1.312500 0.054688 -0.531250 0.459975 -0.380261 -0.802362 
-1.312500 0.054688 -0.531250 -0.459975 -0.380261 -0.802362 
-1.367188 0.296875 -0.500000 -0.992462 0.028626 -0.118900 
-1.250000 0.468750 -0.546875 -0.473067 0.578997 -0.664022 
-0.789062 -0.125000 -0.328125 -0.059908 -0.804712 -0.590594 
-0.640625 -0.007812 -0.429688 -0.346141 -0.637287 -0.688498 
-0.593750 -0.125000 -0.164062 -0.330546 -0.943236 0.031281 
-0.773438 -0.140625 -0.125000 -0.073672 -0.594989 0.800317 
0.593750 -0.125000 -0.164062 0.330546 -0.943236 0.031281 
0.640625 -0.007812 -0.429688 0.346141 -0.637287 -0.688498 
0.789062 -0.125000 -0.328125 0.059908 -0.804712 -0.590594 
0.773438 -0.140625 -0.125000 0.073672 -0.594989 0.800317 
-0.859375 0.382812 -0.382812 0.593738 0.595264 -0.541368 
-0.773438 0.265625 -0.437500 -0.626057 -0.002686 -0.779748 
0.773438 0.265625 -0.437500 0.626057 -0.002686 -0.779748 
0.859375 0.382812 -0.382812 -0.593738 0.595264 -0.541368 
-0.890625 0.406250 -0.234375 0.127689 0.703757 0.698843 
-0.820312 0.328125 -0.203125 -0.713828 0.382183 0.586810 
0.820312 0.328125 -0.203125 0.713828 0.382183 0.586810 
0.890625 0.406250 -0.234375 -0.127689 0.703757 0.698843 
-1.023438 0.437500 -0.484375 0.378063 0.560045 -0.737144 
-1.039062 -0.085938 -0.492188 0.036805 -0.708457 -0.704764 
1.023438 0.437500 -0.484375 -0.378063 0.560045 -0.737144 
1.039062 -0.085938 -0.492188 -0.036805 -0.708457 -0.704764 
-1.023438 0.476562 -0.312500 -0.031556 0.838710 0.543626 
1.023438 0.476562 -0.312500 0.031556 0.838710 0.543626 
-1.234375 0.507812 -0.421875 -0.361156 0.848689 0.386303 
1.234375 0.507812 -0.421875 0.361156 0.848689 0.386303 
-1.351562 0.320312 -0.421875 -0.716392 0.204474 0.667043 
1.351562 0.320312 -0.421875 0.716392 0.204474 0.667043 
-1.281250 0.054688 -0.429688 -0.662038 -0.413770 0.624866 
1.281250 0.054688 -0.429688 0.662038 -0.413770 0.624866 
-1.039062 -0.101562 -0.328125 -0.530229 -0.655751 0.537370 
1.039062 -0.101562 -0.328125 0.530229 -0.655751 0.537370 
-1.109375 0.210938 -0.390625 -0.437483 0.001221 0.899197 
-1.257812 0.242188 -0.492188 0.550981 -0.138096 0.822993 
1.109375 0.210938 -0.390625 0.437483 0.001221 0.899197 
1.257812 0.242188 -0.492188 -0.550981 -0.138096 0.822993 
-1.054688 0.187500 -0.382812 -0.315958 -0.102298 0.943205 
-1.210938 0.085938 -0.484375 0.608539 0.296121 0.736167 
1.210938 0.085938 -0.484375 -0.608539 0.296121 0.736167 
1.054688 0.187500 -0.382812 0.315958 -0.102298 0.943205 
-1.000000 0.125000 -0.367188 -0.445479 -0.088778 0.890866 
-1.046875 0.000000 -0.421875 -0.257698 0.600024 0.757317 
1.046875 0.000000 -0.421875 0.257698 0.600024 0.757317 
1.000000 0.125000 -0.367188 0.445479 -0.088778 0.890866 
-0.937500 0.062500 -0.335938 -0.327799 0.169927 0.929319 
-0.882812 -0.015625 -0.265625 0.041780 0.927213 0.372112 
0.937500 0.062500 -0.335938 0.327799 0.169927 0.929319 
0.882812 -0.015625 -0.265625 -0.041780 0.927213 0.372112 
-0.851562 0.015625 -0.320312 -0.277932 0.260201 0.924680 
-0.812500 -0.015625 -0.320312 -0.750725 0.111545 0.651112 
0.812500 -0.015625 -0.320312 0.750725 0.111545 0.651112 
0.851562 0.015625 -0.320312 0.277932 0.260201 0.924680 
-0.843750 0.171875 -0.320312 -0.437910 -0.293985 0.849574 
-0.890625 0.109375 -0.328125 -0.183782 0.036836 0.982269 
-0.828125 0.078125 -0.320312 -0.554216 0.387219 0.736808 
-0.765625 0.093750 -0.320312 -0.814325 0.253426 0.522111 
0.828125 0.078125 -0.320312 0.554216 0.387219 0.736808 
0.890625 0.109375 -0.328125 0.183782 0.036836 0.982269 
0.843750 0.171875 -0.320312 0.437910 -0.293985 0.849574 
0.765625 0.093750 -0.320312 0.814325 0.253426 0.522111 
-0.960938 0.171875 -0.351562 -0.326670 -0.001617 0.945128 
-0.890625 0.234375 -0.320312 -0.704337 -0.526872 0.475692 
0.890625 0.234375 -0.320312 0.704337 -0.526872 0.475692 
0.960938 0.171875 -0.351562 0.326670 -0.001617 0.945128 
-1.015625 0.234375 -0.375000 -0.308786 0.134617 0.941527 
-0.953125 0.289062 -0.343750 -0.629170 -0.371441 0.682730 
0.953125 0.289062 -0.343750 0.629170 -0.371441 0.682730 
1.015625 0.234375 -0.375000 0.308786 0.134617 0.941527 
-1.039062 0.000000 -0.367188 0.146184 0.948637 0.280465 
-0.882812 -0.023438 -0.210938 -0.137516 0.905820 0.400708 
0.882812 -0.023438 -0.210938 0.137516 0.905820 0.400708 
1.039062 0.000000 -0.367188 -0.146184 0.948637 0.280465 
-1.187500 0.093750 -0.445312 0.723746 0.690023 -0.005219 
1.187500 0.093750 -0.445312 -0.723746 0.690023 -0.005219 
-1.234375 0.250000 -0.445312 0.994690 -0.078005 0.067019 
1.234375 0.250000 -0.445312 -0.994690 -0.078005 0.067019 
-1.171875 0.359375 -0.437500 0.200934 -0.758141 0.620350 
1.171875 0.359375 -0.437500 -0.200934 -0.758141 0.620350 
-1.023438 0.343750 -0.359375 -0.541246 -0.672658 0.504501 
1.023438 0.343750 -0.359375 0.541246 -0.672658 0.504501 
-0.945312 0.304688 -0.289062 -0.690054 -0.553209 0.466628 
0.945312 0.304688 -0.289062 0.690054 -0.553209 0.466628 
-0.812500 -0.015625 -0.273438 -0.464003 0.686666 0.559557 
0.812500 -0.015625 -0.273438 0.464003 0.686666 0.559557 
-0.843750 0.015625 -0.273438 -0.827448 -0.135899 0.544786 
0.843750 0.015625 -0.273438 0.827448 -0.135899 0.544786 
-0.820312 0.085938 -0.273438 -0.466231 0.808863 0.358196 
0.820312 0.085938 -0.273438 0.466231 0.808863 0.358196 
-0.757812 0.093750 -0.273438 -0.743980 -0.022919 0.667776 
0.757812 0.093750 -0.273438 0.743980 -0.022919 0.667776 
-0.835938 0.171875 -0.273438 -0.711295 -0.638325 0.294137 
0.835938 0.171875 -0.273438 0.711295 -0.638325 0.294137 
-0.890625 0.242188 -0.265625 -0.709769 -0.501999 0.494125 
0.890625 0.242188 -0.265625 0.709769 -0.501999 0.494125 
-0.796875 0.203125 -0.210938 -0.818903 -0.425520 0.385113 
-0.859375 0.320312 -0.046875 -0.992523 -0.071444 -0.098758 
0.859375 0.320312 -0.046875 0.992523 -0.071444 -0.098758 
0.796875 0.203125 -0.210938 0.818903 -0.425520 0.385113 
-0.843750 0.289062 -0.210938 -0.439192 -0.273568 0.855708 
0.843750 0.289062 -0.210938 0.439192 -0.273568 0.855708 
-0.921875 0.359375 -0.218750 -0.414686 -0.059877 0.907956 
0.921875 0.359375 -0.218750 0.414686 -0.059877 0.907956 
-0.828125 -0.070312 -0.132812 -0.341563 0.452132 0.823939 
0.828125 -0.070312 -0.132812 0.341563 0.452132 0.823939 
-0.734375 -0.046875 0.070312 -0.724509 -0.684927 0.076632 
-0.851562 0.234375 0.054688 -0.987548 -0.123020 0.097995 
0.851562 0.234375 0.054688 0.987548 -0.123020 0.097995 
0.734375 -0.046875 0.070312 0.724509 -0.684927 0.076632 
-1.015625 0.414062 -0.289062 -0.572741 -0.088443 0.814936 
1.015625 0.414062 -0.289062 0.572741 -0.088443 0.814936 
-1.187500 0.437500 -0.390625 -0.291818 -0.152104 0.944273 
1.187500 0.437500 -0.390625 0.291818 -0.152104 0.944273 
-1.265625 0.289062 -0.406250 0.239662 -0.128605 0.962279 
1.265625 0.289062 -0.406250 -0.239662 -0.128605 0.962279 
-1.210938 0.078125 -0.406250 0.187017 0.370678 0.909696 
1.210938 0.078125 -0.406250 -0.187017 0.370678 0.909696 
-1.031250 -0.039062 -0.304688 -0.455794 0.423170 0.783044 
1.031250 -0.039062 -0.304688 0.455794 0.423170 0.783044 
-0.429688 -0.195312 -0.210938 -0.543504 -0.813379 -0.207343 
-0.296875 -0.312500 -0.265625 -0.560045 -0.814417 -0.151738 
0.296875 -0.312500 -0.265625 0.560045 -0.814417 -0.151738 
0.429688 -0.195312 -0.210938 0.543504 -0.813379 -0.207343 
-0.617188 0.328125 -0.585938 -0.615375 -0.087649 -0.783319 
-0.460938 0.437500 -0.703125 -0.447310 0.229530 -0.864406 
0.460938 0.437500 -0.703125 0.447310 0.229530 -0.864406 
0.617188 0.328125 -0.585938 0.615375 -0.087649 -0.783319 
-0.601562 0.000000 0.414062 -0.547166 -0.832179 -0.089785 
0.601562 0.000000 0.414062 0.547166 -0.832179 -0.089785 
-0.796875 0.617188 -0.117188 -0.873135 0.486984 -0.020264 
-0.796875 0.539062 -0.359375 -0.865352 0.331217 -0.376049 
0.796875 0.539062 -0.359375 0.865352 0.331217 -0.376049 
0.796875 0.617188 -0.117188 0.873135 0.486984 -0.020264 
-0.796875 0.562500 0.125000 -0.748741 0.518387 0.413038 
0.796875 0.562500 0.125000 0.748741 0.518387 0.413038 
-0.726562 0.406250 0.335938 -0.766167 0.634816 0.099612 
0.726562 0.406250 0.335938 0.766167 0.634816 0.099612 
-0.773438 0.164062 0.375000 -0.953185 -0.248299 -0.172430 
-0.796875 0.406250 0.460938 -0.665639 0.602496 -0.440321 
0.796875 0.406250 0.460938 0.665639 0.602496 -0.440321 
0.773438 0.164062 0.375000 0.953185 -0.248299 -0.172430 
-0.460938 0.523438 0.429688 -0.322642 0.847713 0.421033 
-0.484375 0.554688 0.554688 -0.188574 0.788934 -0.584765 
0.484375 0.554688 0.554688 0.188574 0.788934 -0.584765 
0.460938 0.523438 0.429688 0.322642 0.847713 0.421033 
-0.335938 0.687500 0.593750 -0.239784 0.745262 -0.622120 
-0.195312 0.664062 0.617188 0.494247 0.520585 -0.696158 
0.195312 0.664062 0.617188 -0.494247 0.520585 -0.696158 
0.335938 0.687500 0.593750 0.239784 0.745262 -0.622120 
-0.453125 0.851562 0.234375 -0.480697 0.731223 0.483932 
0.000000 0.898438 0.289062 0.000000 0.758690 0.651418 
0.453125 0.851562 0.234375 0.480697 0.731223 0.483932 
-0.632812 0.453125 0.281250 -0.489242 0.762963 0.422498 
-0.679688 0.453125 0.492188 -0.363109 0.908567 -0.206458 
0.679688 0.453125 0.492188 0.363109 0.908567 -0.206458 
0.632812 0.453125 0.281250 0.489242 0.762963 0.422498 
-0.640625 0.703125 0.054688 -0.645039 0.694540 0.318613 
0.640625 0.703125 0.054688 0.645039 0.694540 0.318613 
-0.453125 0.929688 -0.070312 -0.492843 0.869015 0.043062 
-0.640625 0.750000 -0.195312 -0.679434 0.728965 -0.083468 
0.453125 0.929688 -0.070312 0.492843 0.869015 0.043062 
0.640625 0.750000 -0.195312 0.679434 0.728965 -0.083468 
-0.453125 0.867188 -0.382812 -0.391736 0.826014 -0.405225 
-0.640625 0.679688 -0.445312 -0.644398 0.527207 -0.553880 
0.453125 0.867188 -0.382812 0.391736 0.826014 -0.405225 
0.640625 0.679688 -0.445312 0.644398 0.527207 -0.553880 
0.000000 0.898438 -0.546875 0.000000 0.800714 -0.599017 
0.000000 0.562500 -0.851562 0.000000 0.330729 -0.943693 
0.000000 0.984375 -0.078125 0.000000 0.999664 0.025636 
0.000000 0.070312 -0.828125 0.000000 -0.271462 -0.962432 
-0.179688 -0.414062 0.257812 -0.685293 -0.583148 -0.436232 
-0.234375 -0.351562 0.406250 -0.907224 0.252602 -0.336253 
0.234375 -0.351562 0.406250 0.907224 0.252602 -0.336253 
0.179688 -0.414062 0.257812 0.685293 -0.583148 -0.436232 
0.000000 -0.460938 0.187500 0.000000 -0.984344 -0.176214 
0.000000 -0.484375 0.281250 0.000000 -0.736351 -0.676565 
0.000000 -0.382812 -0.351562 0.000000 -0.948759 -0.315928 
0.000000 -0.195312 -0.671875 0.000000 -0.648244 -0.761406 
-0.437500 -0.140625 0.531250 -0.317362 -0.946959 -0.049959 
-0.203125 -0.187500 0.562500 -0.838282 -0.408155 0.361461 
0.203125 -0.187500 0.562500 0.838282 -0.408155 0.361461 
0.437500 -0.140625 0.531250 0.317362 -0.946959 -0.049959 
-0.234375 -0.250000 0.554688 -0.939360 0.325999 0.106113 
0.234375 -0.250000 0.554688 0.939360 0.325999 0.106113 
-0.257812 -0.312500 0.554688 -0.930631 0.340159 0.134770 
-0.312500 -0.437500 0.570312 -0.960143 0.231361 0.156774 
0.312500 -0.437500 0.570312 0.960143 0.231361 0.156774 
0.257812 -0.312500 0.554688 0.930631 0.340159 0.134770 
-0.250000 -0.500000 0.390625 -0.812555 -0.001068 -0.582842 
-0.351562 -0.695312 0.570312 -0.979583 0.093387 0.177862 
0.351562 -0.695312 0.570312 0.979583 0.093387 0.177862 
0.250000 -0.500000 0.390625 0.812555 -0.001068 -0.582842 
-0.125000 -0.539062 0.359375 -0.272530 -0.301157 -0.913785 
0.125000 -0.539062 0.359375 0.272530 -0.301157 -0.913785 
-0.164062 -0.945312 0.437500 -0.090915 -0.776330 -0.623707 
-0.328125 -0.914062 0.398438 -0.506851 -0.488144 -0.710471 
-0.140625 -0.757812 0.367188 -0.142521 -0.147282 -0.978759 
-0.289062 -0.710938 0.382812 -0.637257 0.093326 -0.764946 
0.289062 -0.710938 0.382812 0.637257 0.093326 -0.764946 
0.328125 -0.914062 0.398438 0.506851 -0.488144 -0.710471 
0.140625 -0.757812 0.367188 0.142521 -0.147282 -0.978759 
0.164062 -0.945312 0.437500 0.090915 -0.776330 -0.623707 
-0.367188 -0.890625 0.531250 -0.937284 -0.254250 0.238350 
0.367188 -0.890625 0.531250 0.937284 -0.254250 0.238350 
-0.328125 -0.945312 0.523438 -0.430525 -0.895260 0.114597 
0.328125 -0.945312 0.523438 0.430525 -0.895260 0.114597 
-0.179688 -0.968750 0.554688 -0.158391 -0.974822 0.156774 
0.179688 -0.968750 0.554688 0.158391 -0.974822 0.156774 
0.000000 -0.976562 0.460938 0.000000 -0.915860 -0.401440 
0.000000 -0.984375 0.578125 0.000000 -0.946440 0.322855 
0.000000 -0.804688 0.343750 0.000000 -0.336802 -0.941557 
0.000000 -0.570312 0.320312 0.000000 -0.175726 -0.984436 
-0.632812 -0.039062 0.539062 -0.599231 -0.773980 0.204566 
0.632812 -0.039062 0.539062 0.599231 -0.773980 0.204566 
-0.828125 0.148438 0.445312 -0.890988 -0.423261 -0.164037 
0.828125 0.148438 0.445312 0.890988 -0.423261 -0.164037 
-0.859375 0.429688 0.593750 -0.851985 0.219275 0.475387 
0.859375 0.429688 0.593750 0.851985 0.219275 0.475387 
-0.710938 0.484375 0.625000 -0.509171 0.852229 0.119999 
0.710938 0.484375 0.625000 0.509171 0.852229 0.119999 
-0.492188 0.601562 0.687500 -0.610431 0.759148 0.225867 
0.492188 0.601562 0.687500 0.610431 0.759148 0.225867 
-0.320312 0.757812 0.734375 -0.182470 0.981780 0.052492 
0.320312 0.757812 0.734375 0.182470 0.981780 0.052492 
-0.156250 0.718750 0.757812 0.520371 0.770348 0.368389 
0.156250 0.718750 0.757812 -0.520371 0.770348 0.368389 
-0.062500 0.492188 0.750000 0.852718 0.504257 0.136204 
0.062500 0.492188 0.750000 -0.852718 0.504257 0.136204 
0.000000 0.429688 0.742188 0.000000 0.970214 0.242164 
-0.203125 0.171875 0.750000 -0.709647 0.261818 0.654042 
-0.187500 0.156250 0.773438 0.067293 -0.064272 0.995636 
-0.171875 0.218750 0.781250 -0.246590 -0.034089 0.968505 
-0.195312 0.226562 0.750000 -0.809717 -0.010224 0.586688 
0.171875 0.218750 0.781250 0.246590 -0.034089 0.968505 
0.187500 0.156250 0.773438 -0.067293 -0.064272 0.995636 
0.203125 0.171875 0.750000 0.709647 0.261818 0.654042 
0.195312 0.226562 0.750000 0.809717 -0.010224 0.586688 
-0.179688 0.296875 0.781250 -0.465835 -0.080325 0.881191 
-0.195312 0.296875 0.757812 -0.737114 -0.244179 0.630085 
0.179688 0.296875 0.781250 0.465835 -0.080325 0.881191 
0.195312 0.296875 0.757812 0.737114 -0.244179 0.630085 
-0.210938 0.375000 0.781250 -0.211951 -0.085971 0.973479 
-0.234375 0.359375 0.757812 -0.367504 -0.376476 0.850398 
0.210938 0.375000 0.781250 0.211951 -0.085971 0.973479 
0.234375 0.359375 0.757812 0.367504 -0.376476 0.850398 
-0.242188 0.125000 0.757812 -0.430280 0.556597 0.710624 
-0.226562 0.109375 0.781250 -0.020081 -0.072939 0.997131 
0.226562 0.109375 0.781250 0.020081 -0.072939 0.997131 
0.242188 0.125000 0.757812 0.430280 0.556597 0.710624 
-0.375000 0.085938 0.726562 -0.090976 0.597339 0.796777 
-0.375000 0.062500 0.742188 -0.187933 -0.091617 0.977874 
0.375000 0.062500 0.742188 0.187933 -0.091617 0.977874 
0.375000 0.085938 0.726562 0.090976 0.597339 0.796777 
-0.460938 0.117188 0.703125 0.165929 0.609363 0.775292 
-0.476562 0.101562 0.718750 -0.203314 0.092532 0.974700 
0.476562 0.101562 0.718750 0.203314 0.092532 0.974700 
0.460938 0.117188 0.703125 -0.165929 0.609363 0.775292 
-0.546875 0.210938 0.671875 0.269295 0.241676 0.932218 
-0.578125 0.195312 0.679688 -0.314219 -0.132420 0.940062 
0.578125 0.195312 0.679688 0.314219 -0.132420 0.940062 
0.546875 0.210938 0.671875 -0.269295 0.241676 0.932218 
-0.554688 0.281250 0.671875 0.420057 -0.118992 0.899625 
-0.585938 0.289062 0.687500 -0.119755 -0.070925 0.990234 
0.585938 0.289062 0.687500 0.119755 -0.070925 0.990234 
0.554688 0.281250 0.671875 -0.420057 -0.118992 0.899625 
-0.531250 0.335938 0.679688 0.226142 -0.606586 0.762139 
-0.562500 0.351562 0.695312 -0.320841 0.040712 0.946226 
0.562500 0.351562 0.695312 0.320841 0.040712 0.946226 
0.531250 0.335938 0.679688 -0.226142 -0.606586 0.762139 
-0.414062 0.390625 0.750000 0.232612 -0.746055 0.623890 
-0.421875 0.398438 0.773438 -0.074557 -0.391644 0.917081 
0.421875 0.398438 0.773438 0.074557 -0.391644 0.917081 
0.414062 0.390625 0.750000 -0.232612 -0.746055 0.623890 
-0.335938 0.406250 0.750000 -0.121250 -0.313883 0.941679 
-0.335938 0.429688 0.757812 -0.146702 -0.035707 0.988525 
0.335938 0.429688 0.757812 0.146702 -0.035707 0.988525 
0.335938 0.406250 0.750000 0.121250 -0.313883 0.941679 
-0.281250 0.398438 0.765625 -0.216834 -0.273721 0.937010 
-0.273438 0.421875 0.773438 -0.187445 0.001160 0.982269 
0.273438 0.421875 0.773438 0.187445 0.001160 0.982269 
0.281250 0.398438 0.765625 0.216834 -0.273721 0.937010 
-0.164062 0.414062 0.773438 -0.303018 -0.201941 0.931333 
-0.250000 0.468750 0.757812 -0.253090 -0.161809 0.953795 
0.250000 0.468750 0.757812 0.253090 -0.161809 0.953795 
0.164062 0.414062 0.773438 0.303018 -0.201941 0.931333 
-0.328125 0.476562 0.742188 -0.140110 -0.091189 0.985900 
0.328125 0.476562 0.742188 0.140110 -0.091189 0.985900 
-0.429688 0.437500 0.718750 -0.237983 0.050172 0.969939 
0.429688 0.437500 0.718750 0.237983 0.050172 0.969939 
-0.601562 0.375000 0.664062 -0.312662 -0.237922 0.919553 
0.601562 0.375000 0.664062 0.312662 -0.237922 0.919553 
-0.640625 0.296875 0.648438 -0.373791 -0.105197 0.921506 
0.640625 0.296875 0.648438 0.373791 -0.105197 0.921506 
-0.625000 0.187500 0.648438 -0.470595 -0.164647 0.866817 
0.625000 0.187500 0.648438 0.470595 -0.164647 0.866817 
-0.492188 0.062500 0.671875 -0.439222 -0.376141 0.815821 
0.492188 0.062500 0.671875 0.439222 -0.376141 0.815821 
-0.375000 0.015625 0.703125 -0.219611 -0.540635 0.812037 
0.375000 0.015625 0.703125 0.219611 -0.540635 0.812037 
-0.203125 0.093750 0.742188 0.166967 -0.374828 0.911893 
0.203125 0.093750 0.742188 -0.166967 -0.374828 0.911893 
-0.164062 0.140625 0.750000 0.201849 -0.277596 0.939238 
0.164062 0.140625 0.750000 -0.201849 -0.277596 0.939238 
-0.125000 0.304688 0.765625 0.001160 -0.165563 0.986175 
0.125000 0.304688 0.765625 -0.001160 -0.165563 0.986175 
-0.132812 0.210938 0.757812 0.292917 -0.174108 0.940123 
0.132812 0.210938 0.757812 -0.292917 -0.174108 0.940123 
0.000000 -0.859375 0.632812 0.000000 0.732200 0.681051 
0.000000 -0.781250 0.656250 0.000000 -0.603626 0.797266 
0.000000 -0.773438 0.718750 0.000000 -0.971740 0.235908 
-0.093750 -0.742188 0.726562 0.131779 -0.608295 0.782678 
0.093750 -0.742188 0.726562 -0.131779 -0.608295 0.782678 
-0.093750 -0.820312 0.710938 0.759117 0.068392 0.647298 
0.093750 -0.820312 0.710938 -0.759117 0.068392 0.647298 
-0.046875 -0.867188 0.687500 0.405957 0.643605 0.648793 
0.046875 -0.867188 0.687500 -0.405957 0.643605 0.648793 
0.000000 -0.875000 0.687500 0.000000 0.598346 0.801202 
-0.062500 -0.882812 0.695312 0.073855 -0.330546 0.940855 
0.000000 -0.890625 0.687500 0.000000 -0.124516 0.992187 
0.062500 -0.882812 0.695312 -0.073855 -0.330546 0.940855 
-0.117188 -0.835938 0.710938 -0.085116 -0.339244 0.936827 
0.117188 -0.835938 0.710938 0.085116 -0.339244 0.936827 
-0.109375 -0.718750 0.734375 -0.141881 -0.148350 0.978698 
0.109375 -0.718750 0.734375 0.141881 -0.148350 0.978698 
0.000000 -0.765625 0.734375 0.000000 -0.482803 0.875698 
-0.164062 -0.242188 0.710938 -0.692984 -0.001343 0.720908 
-0.125000 -0.101562 0.812500 -0.095523 -0.326090 0.940489 
0.125000 -0.101562 0.812500 0.095523 -0.326090 0.940489 
0.164062 -0.242188 0.710938 0.692984 -0.001343 0.720908 
-0.179688 -0.312500 0.710938 -0.646687 0.162603 0.745201 
0.179688 -0.312500 0.710938 0.646687 0.162603 0.745201 
-0.210938 -0.445312 0.710938 -0.593463 0.121860 0.795556 
0.210938 -0.445312 0.710938 0.593463 0.121860 0.795556 
-0.078125 -0.445312 0.750000 -0.124363 0.009674 0.992187 
-0.085938 -0.289062 0.742188 -0.509995 -0.457717 0.728233 
0.085938 -0.289062 0.742188 0.509995 -0.457717 0.728233 
0.078125 -0.445312 0.750000 0.124363 0.009674 0.992187 
-0.125000 -0.226562 0.750000 -0.972137 -0.167882 0.163549 
0.125000 -0.226562 0.750000 0.972137 -0.167882 0.163549 
-0.101562 -0.148438 0.742188 -0.715995 0.572161 0.399945 
0.101562 -0.148438 0.742188 0.715995 0.572161 0.399945 
0.000000 -0.140625 0.742188 0.000000 0.430525 0.902554 
0.000000 0.046875 0.726562 0.000000 0.010865 0.999939 
-0.078125 -0.250000 0.804688 -0.221839 -0.606037 0.763848 
0.000000 -0.289062 0.804688 0.000000 -0.492935 0.870022 
0.000000 -0.203125 0.828125 0.000000 0.010315 0.999939 
-0.109375 -0.226562 0.828125 -0.294320 -0.184484 0.937712 
0.078125 -0.250000 0.804688 0.221839 -0.606037 0.763848 
0.109375 -0.226562 0.828125 0.294320 -0.184484 0.937712 
-0.093750 -0.156250 0.812500 -0.396924 0.534989 0.745781 
-0.046875 -0.148438 0.812500 0.247780 0.568224 0.784661 
0.046875 -0.148438 0.812500 -0.247780 0.568224 0.784661 
0.093750 -0.156250 0.812500 0.396924 0.534989 0.745781 
-0.132812 -0.226562 0.796875 -0.868221 -0.261330 0.421735 
-0.093750 -0.273438 0.781250 -0.555986 -0.690695 0.462355 
0.132812 -0.226562 0.796875 0.868221 -0.261330 0.421735 
0.093750 -0.273438 0.781250 0.555986 -0.690695 0.462355 
-0.109375 -0.132812 0.781250 -0.753075 0.649892 0.102298 
0.109375 -0.132812 0.781250 0.753075 0.649892 0.102298 
-0.039062 -0.125000 0.781250 0.194189 0.935697 0.294473 
0.039062 -0.125000 0.781250 -0.194189 0.935697 0.294473 
0.000000 -0.187500 0.796875 0.000000 0.788965 0.614399 
0.000000 -0.320312 0.781250 0.000000 -0.888638 0.458571 
0.000000 -0.328125 0.742188 0.000000 -0.336772 0.941557 
0.000000 -0.195312 0.750000 0.000000 -0.251991 0.967711 
-0.117188 -0.687500 0.734375 -0.188360 -0.040132 0.981262 
0.000000 -0.679688 0.734375 0.000000 -0.032899 0.999451 
0.117188 -0.687500 0.734375 0.188360 -0.040132 0.981262 
0.000000 -0.445312 0.750000 0.000000 0.000000 1.000000 
-0.250000 -0.703125 0.687500 -0.572039 -0.018708 0.820002 
-0.265625 -0.820312 0.664062 -0.536332 -0.212409 0.816828 
0.265625 -0.820312 0.664062 0.536332 -0.212409 0.816828 
0.250000 -0.703125 0.687500 0.572039 -0.018708 0.820002 
-0.234375 -0.914062 0.632812 -0.357707 -0.638325 0.681570 
0.234375 -0.914062 0.632812 0.357707 -0.638325 0.681570 
-0.164062 -0.929688 0.632812 -0.154302 -0.754112 0.638325 
0.164062 -0.929688 0.632812 0.154302 -0.754112 0.638325 
0.000000 -0.945312 0.640625 0.000000 -0.743461 0.668752 
0.000000 0.210938 0.765625 0.000000 -0.189123 0.981933 
0.000000 0.351562 0.820312 0.000000 -0.114475 0.993408 
-0.101562 0.429688 0.843750 0.001404 -0.055635 0.998444 
0.101562 0.429688 0.843750 -0.001404 -0.055635 0.998444 
-0.398438 -0.046875 0.671875 -0.336283 -0.512833 0.789850 
0.398438 -0.046875 0.671875 0.336283 -0.512833 0.789850 
-0.617188 0.054688 0.625000 -0.454543 -0.337077 0.824458 
0.617188 0.054688 0.625000 0.454543 -0.337077 0.824458 
-0.726562 0.203125 0.601562 -0.543474 -0.308603 0.780602 
0.726562 0.203125 0.601562 0.543474 -0.308603 0.780602 
-0.742188 0.375000 0.656250 -0.387158 -0.187811 0.902646 
0.742188 0.375000 0.656250 0.387158 -0.187811 0.902646 
-0.687500 0.414062 0.726562 -0.430647 -0.144902 0.890805 
0.687500 0.414062 0.726562 0.430647 -0.144902 0.890805 
-0.437500 0.546875 0.796875 -0.234016 -0.120548 0.964721 
0.437500 0.546875 0.796875 0.234016 -0.120548 0.964721 
-0.312500 0.640625 0.835938 -0.263833 0.168798 0.949675 
0.312500 0.640625 0.835938 0.263833 0.168798 0.949675 
-0.203125 0.617188 0.851562 0.196722 0.141881 0.970122 
0.203125 0.617188 0.851562 -0.196722 0.141881 0.970122 
-0.468750 0.242188 0.757812 -0.906766 -0.008332 0.421522 
-0.437500 0.164062 0.765625 -0.744133 -0.640919 0.188269 
0.437500 0.164062 0.765625 0.744133 -0.640919 0.188269 
0.468750 0.242188 0.757812 0.906766 -0.008332 0.421522 
-0.351562 0.132812 0.781250 -0.044191 -0.974395 0.220313 
0.351562 0.132812 0.781250 0.044191 -0.974395 0.220313 
-0.273438 0.164062 0.796875 0.639943 -0.761498 0.102786 
0.273438 0.164062 0.796875 -0.639943 -0.761498 0.102786 
-0.242188 0.242188 0.796875 0.955504 -0.011444 0.294717 
0.242188 0.242188 0.796875 -0.955504 -0.011444 0.294717 
-0.273438 0.328125 0.796875 0.649678 0.754387 0.093570 
0.273438 0.328125 0.796875 -0.649678 0.754387 0.093570 
-0.351562 0.359375 0.781250 -0.037049 0.978881 0.200903 
0.351562 0.359375 0.781250 0.037049 0.978881 0.200903 
-0.437500 0.328125 0.765625 -0.752342 0.635395 0.173742 
0.437500 0.328125 0.765625 0.752342 0.635395 0.173742 
-0.562500 0.242188 0.671875 -0.811792 -0.002777 0.583880 
-0.500000 0.390625 0.687500 -0.596942 0.486770 0.637684 
0.500000 0.390625 0.687500 0.596942 0.486770 0.637684 
0.562500 0.242188 0.671875 0.811792 -0.002777 0.583880 
-0.625000 0.242188 0.562500 -0.868221 -0.005829 0.496109 
-0.546875 0.437500 0.578125 -0.719504 0.473006 0.508469 
0.546875 0.437500 0.578125 0.719504 0.473006 0.508469 
0.625000 0.242188 0.562500 0.868221 -0.005829 0.496109 
-0.351562 0.515625 0.617188 -0.204260 0.828761 0.520951 
-0.351562 0.453125 0.718750 -0.095767 0.717277 0.690146 
0.351562 0.453125 0.718750 0.095767 0.717277 0.690146 
0.351562 0.515625 0.617188 0.204260 0.828761 0.520951 
-0.203125 0.390625 0.742188 0.451704 0.459883 0.764458 
0.203125 0.390625 0.742188 -0.451704 0.459883 0.764458 
-0.156250 0.437500 0.648438 0.450362 0.693899 0.561815 
0.156250 0.437500 0.648438 -0.450362 0.693899 0.561815 
-0.078125 0.242188 0.656250 0.805536 0.109409 0.582324 
-0.140625 0.242188 0.742188 0.691488 -0.074099 0.718558 
0.140625 0.242188 0.742188 -0.691488 -0.074099 0.718558 
0.078125 0.242188 0.656250 -0.805536 0.109409 0.582324 
-0.203125 0.093750 0.742188 0.386212 -0.474685 0.790857 
0.203125 0.093750 0.742188 -0.386212 -0.474685 0.790857 
-0.156250 0.054688 0.648438 0.557756 -0.629109 0.541368 
0.156250 0.054688 0.648438 -0.557756 -0.629109 0.541368 
-0.351562 0.031250 0.718750 -0.091159 -0.723716 0.684011 
-0.351562 -0.023438 0.617188 -0.199744 -0.858058 0.473067 
0.351562 0.031250 0.718750 0.091159 -0.723716 0.684011 
0.351562 -0.023438 0.617188 0.199744 -0.858058 0.473067 
-0.500000 0.093750 0.687500 -0.597949 -0.496475 0.629231 
0.500000 0.093750 0.687500 0.597949 -0.496475 0.629231 
-0.546875 0.054688 0.578125 -0.723197 -0.488907 0.487747 
0.546875 0.054688 0.578125 0.723197 -0.488907 0.487747 
3 0 1 2 
3 3 4 5 
3 6 1 0 
3 5 4 7 
3 0 8 6 
3 7 9 5 
3 0 10 8 
3 9 11 5 
3 0 12 10 
3 11 13 5 
3 0 14 12 
3 13 15 5 
3 0 16 14 
3 15 17 5 
3 0 2 16 
3 17 3 5 
3 18 19 20 
3 21 22 23 
3 24 25 26 
3 26 27 24 
3 28 29 30 
3 31 32 33 
3 34 35 36 
3 37 38 39 
3 40 41 42 
3 43 44 45 
3 46 47 48 
3 49 50 51 
3 52 53 54 
3 55 56 57 
3 58 59 60 
3 61 62 63 
3 64 65 66 
3 64 66 67 
3 68 69 70 
3 68 70 71 
3 64 72 73 
3 64 73 65 
3 74 75 70 
3 74 70 69 
3 76 77 72 
3 77 73 72 
3 74 78 75 
3 78 79 75 
3 61 63 80 
3 61 80 81 
3 82 58 60 
3 82 60 83 
3 64 81 72 
3 81 80 72 
3 82 83 75 
3 83 70 75 
3 80 84 72 
3 84 76 72 
3 79 85 75 
3 85 82 75 
3 63 86 80 
3 86 84 80 
3 85 87 82 
3 87 58 82 
3 62 88 63 
3 88 86 63 
3 87 89 58 
3 89 59 58 
3 61 90 62 
3 90 88 62 
3 89 91 59 
3 91 60 59 
3 81 92 90 
3 81 90 61 
3 91 93 83 
3 91 83 60 
3 64 67 92 
3 64 92 81 
3 93 71 70 
3 93 70 83 
3 94 56 55 
3 94 55 95 
3 54 53 96 
3 54 96 97 
3 98 94 99 
3 94 95 99 
3 97 96 100 
3 96 101 100 
3 102 98 103 
3 98 99 103 
3 100 101 104 
3 101 105 104 
3 106 102 103 
3 106 103 107 
3 104 105 108 
3 104 108 109 
3 106 107 110 
3 107 111 110 
3 112 109 113 
3 109 108 113 
3 114 115 116 
3 114 116 117 
3 118 119 120 
3 118 120 121 
3 115 114 122 
3 114 123 122 
3 124 120 125 
3 120 119 125 
3 126 122 127 
3 122 123 127 
3 124 125 128 
3 125 129 128 
3 126 127 57 
3 126 57 56 
3 52 128 129 
3 52 129 53 
3 94 98 56 
3 98 126 56 
3 129 101 53 
3 101 96 53 
3 98 102 122 
3 98 122 126 
3 125 105 101 
3 125 101 129 
3 102 106 122 
3 106 115 122 
3 119 108 125 
3 108 105 125 
3 106 110 115 
3 110 116 115 
3 118 113 119 
3 113 108 119 
3 103 130 107 
3 130 131 107 
3 132 133 109 
3 133 104 109 
3 99 134 103 
3 134 130 103 
3 133 135 104 
3 135 100 104 
3 95 136 99 
3 136 134 99 
3 135 137 100 
3 137 97 100 
3 55 138 136 
3 55 136 95 
3 137 139 54 
3 137 54 97 
3 57 140 138 
3 57 138 55 
3 139 141 52 
3 139 52 54 
3 127 142 140 
3 127 140 57 
3 141 143 128 
3 141 128 52 
3 107 131 144 
3 107 144 111 
3 145 132 109 
3 145 109 112 
3 111 144 146 
3 111 146 110 
3 147 145 112 
3 147 112 113 
3 110 146 116 
3 146 148 116 
3 149 147 118 
3 147 113 118 
3 116 148 117 
3 148 150 117 
3 151 149 121 
3 149 118 121 
3 117 150 152 
3 117 152 114 
3 153 151 121 
3 153 121 120 
3 114 152 123 
3 152 154 123 
3 155 153 124 
3 153 120 124 
3 123 154 142 
3 123 142 127 
3 143 155 124 
3 143 124 128 
3 49 51 156 
3 51 157 156 
3 158 46 159 
3 46 48 159 
3 160 156 77 
3 156 157 77 
3 158 159 78 
3 159 161 78 
3 154 160 142 
3 160 162 142 
3 163 161 143 
3 161 155 143 
3 152 156 154 
3 156 160 154 
3 161 159 155 
3 159 153 155 
3 49 156 150 
3 156 152 150 
3 153 159 151 
3 159 48 151 
3 146 49 150 
3 146 150 148 
3 151 48 147 
3 151 147 149 
3 50 49 144 
3 49 146 144 
3 147 48 145 
3 48 47 145 
3 144 131 164 
3 144 164 50 
3 165 132 145 
3 165 145 47 
3 162 160 77 
3 162 77 76 
3 78 161 163 
3 78 163 79 
3 51 166 167 
3 51 167 157 
3 168 169 46 
3 168 46 158 
3 164 67 50 
3 67 66 50 
3 68 71 47 
3 71 165 47 
3 50 66 51 
3 66 166 51 
3 169 68 46 
3 68 47 46 
3 142 162 170 
3 142 170 140 
3 171 163 143 
3 171 143 141 
3 138 140 172 
3 140 170 172 
3 171 141 173 
3 141 139 173 
3 136 138 174 
3 138 172 174 
3 173 139 175 
3 139 137 175 
3 134 136 176 
3 136 174 176 
3 175 137 177 
3 137 135 177 
3 130 134 176 
3 130 176 178 
3 177 135 133 
3 177 133 179 
3 131 130 178 
3 131 178 164 
3 179 133 132 
3 179 132 165 
3 164 178 92 
3 164 92 67 
3 93 179 165 
3 93 165 71 
3 178 176 92 
3 176 90 92 
3 91 177 93 
3 177 179 93 
3 176 174 90 
3 174 88 90 
3 89 175 91 
3 175 177 91 
3 174 172 88 
3 172 86 88 
3 87 173 89 
3 173 175 89 
3 172 170 84 
3 172 84 86 
3 85 171 173 
3 85 173 87 
3 162 76 170 
3 76 84 170 
3 85 79 171 
3 79 163 171 
3 44 43 180 
3 43 181 180 
3 182 42 183 
3 42 41 183 
3 44 180 65 
3 180 66 65 
3 68 183 69 
3 183 41 69 
3 44 184 45 
3 184 185 45 
3 186 187 40 
3 187 41 40 
3 44 65 184 
3 65 73 184 
3 74 69 187 
3 69 41 187 
3 33 37 39 
3 33 39 31 
3 34 36 28 
3 34 28 30 
3 31 39 188 
3 31 188 166 
3 189 34 30 
3 189 30 169 
3 180 31 66 
3 31 166 66 
3 169 30 68 
3 30 183 68 
3 180 181 31 
3 181 32 31 
3 29 182 30 
3 182 183 30 
3 190 191 77 
3 191 73 77 
3 74 192 78 
3 192 193 78 
3 190 77 157 
3 190 157 194 
3 158 78 193 
3 158 193 195 
3 194 157 167 
3 194 167 196 
3 168 158 195 
3 168 195 197 
3 167 198 196 
3 198 199 196 
3 200 201 197 
3 201 168 197 
3 202 203 27 
3 202 27 26 
3 25 204 205 
3 25 205 26 
3 206 207 203 
3 207 27 203 
3 25 208 204 
3 208 209 204 
3 210 202 211 
3 202 26 211 
3 26 205 211 
3 205 212 211 
3 213 214 202 
3 214 203 202 
3 204 215 205 
3 215 216 205 
3 213 202 210 
3 213 210 217 
3 212 205 216 
3 212 216 218 
3 217 210 219 
3 217 219 220 
3 221 212 218 
3 221 218 222 
3 220 219 223 
3 220 223 224 
3 225 221 222 
3 225 222 226 
3 224 223 185 
3 224 185 184 
3 186 225 226 
3 186 226 187 
3 224 184 191 
3 184 73 191 
3 74 187 192 
3 187 226 192 
3 191 190 220 
3 191 220 224 
3 222 193 192 
3 222 192 226 
3 190 194 217 
3 190 217 220 
3 218 195 193 
3 218 193 222 
3 194 196 213 
3 194 213 217 
3 216 197 195 
3 216 195 218 
3 196 199 214 
3 196 214 213 
3 215 200 197 
3 215 197 216 
3 185 223 227 
3 185 227 228 
3 227 225 186 
3 227 186 228 
3 223 219 229 
3 223 229 227 
3 229 221 225 
3 229 225 227 
3 219 210 229 
3 210 211 229 
3 211 212 229 
3 212 221 229 
3 45 185 230 
3 185 228 230 
3 228 186 230 
3 186 40 230 
3 166 188 198 
3 166 198 167 
3 201 189 169 
3 201 169 168 
3 32 231 33 
3 231 232 33 
3 233 234 28 
3 234 29 28 
3 231 32 235 
3 231 235 236 
3 235 29 234 
3 235 234 236 
3 32 181 237 
3 32 237 235 
3 237 182 29 
3 237 29 235 
3 181 43 237 
3 43 238 237 
3 238 42 237 
3 42 182 237 
3 43 45 238 
3 45 230 238 
3 230 40 238 
3 40 42 238 
3 39 38 239 
3 38 240 239 
3 241 35 242 
3 35 34 242 
3 37 243 38 
3 243 240 38 
3 241 244 35 
3 244 36 35 
3 33 232 245 
3 232 246 245 
3 247 233 248 
3 233 28 248 
3 37 33 243 
3 33 245 243 
3 248 28 244 
3 28 36 244 
3 249 250 246 
3 249 246 232 
3 247 251 252 
3 247 252 233 
3 253 249 231 
3 249 232 231 
3 233 252 234 
3 252 254 234 
3 255 256 257 
3 256 258 257 
3 259 260 261 
3 260 262 261 
3 253 257 258 
3 253 258 249 
3 259 261 254 
3 259 254 252 
3 258 263 250 
3 258 250 249 
3 251 264 259 
3 251 259 252 
3 256 265 263 
3 256 263 258 
3 264 266 260 
3 264 260 259 
3 255 267 265 
3 255 265 256 
3 266 268 262 
3 266 262 260 
3 269 270 267 
3 269 267 255 
3 268 270 269 
3 268 269 262 
3 257 271 255 
3 271 269 255 
3 269 271 262 
3 271 261 262 
3 253 272 257 
3 272 271 257 
3 271 272 261 
3 272 254 261 
3 231 236 253 
3 236 272 253 
3 272 236 254 
3 236 234 254 
3 39 239 273 
3 39 273 188 
3 274 242 34 
3 274 34 189 
3 188 273 275 
3 188 275 198 
3 276 274 189 
3 276 189 201 
3 198 275 199 
3 275 277 199 
3 278 276 200 
3 276 201 200 
3 199 277 279 
3 199 279 214 
3 280 278 200 
3 280 200 215 
3 214 279 203 
3 279 281 203 
3 282 280 204 
3 280 215 204 
3 203 281 206 
3 281 283 206 
3 284 282 209 
3 282 204 209 
3 206 283 207 
3 283 285 207 
3 286 284 208 
3 284 209 208 
3 207 285 287 
3 207 287 27 
3 288 286 208 
3 288 208 25 
3 27 287 289 
3 27 289 24 
3 289 288 25 
3 289 25 24 
3 290 291 292 
3 290 292 293 
3 294 295 296 
3 294 296 297 
3 293 292 298 
3 293 298 299 
3 300 294 297 
3 300 297 301 
3 299 298 302 
3 299 302 303 
3 304 300 301 
3 304 301 305 
3 306 307 291 
3 306 291 290 
3 295 308 309 
3 295 309 296 
3 310 311 306 
3 311 307 306 
3 308 312 309 
3 312 313 309 
3 314 315 310 
3 315 311 310 
3 312 316 313 
3 316 317 313 
3 318 319 315 
3 318 315 314 
3 316 320 321 
3 316 321 317 
3 322 323 318 
3 323 319 318 
3 320 324 321 
3 324 325 321 
3 326 327 323 
3 326 323 322 
3 324 328 329 
3 324 329 325 
3 330 331 326 
3 331 327 326 
3 328 332 329 
3 332 333 329 
3 334 335 330 
3 335 331 330 
3 332 336 333 
3 336 337 333 
3 338 339 335 
3 338 335 334 
3 336 340 341 
3 336 341 337 
3 303 302 339 
3 303 339 338 
3 340 304 305 
3 340 305 341 
3 302 342 343 
3 302 343 339 
3 344 345 304 
3 344 304 340 
3 339 343 346 
3 339 346 335 
3 347 344 340 
3 347 340 336 
3 335 346 348 
3 335 348 331 
3 349 347 336 
3 349 336 332 
3 331 348 327 
3 348 350 327 
3 351 349 328 
3 349 332 328 
3 327 350 323 
3 350 352 323 
3 353 351 324 
3 351 328 324 
3 323 352 354 
3 323 354 319 
3 355 353 324 
3 355 324 320 
3 319 354 356 
3 319 356 315 
3 357 355 320 
3 357 320 316 
3 315 356 358 
3 315 358 311 
3 359 357 316 
3 359 316 312 
3 311 358 360 
3 311 360 307 
3 361 359 312 
3 361 312 308 
3 307 360 291 
3 360 362 291 
3 363 361 295 
3 361 308 295 
3 298 364 302 
3 364 342 302 
3 345 365 304 
3 365 300 304 
3 292 366 364 
3 292 364 298 
3 365 367 294 
3 365 294 300 
3 291 362 366 
3 291 366 292 
3 367 363 295 
3 367 295 294 
3 22 368 369 
3 22 369 23 
3 369 368 19 
3 369 19 18 
3 369 370 23 
3 370 371 23 
3 372 370 18 
3 370 369 18 
3 23 371 373 
3 23 373 21 
3 374 372 18 
3 374 18 20 
3 21 373 375 
3 21 375 22 
3 376 374 20 
3 376 20 19 
3 22 375 368 
3 375 377 368 
3 377 376 368 
3 376 19 368 
3 375 378 379 
3 375 379 377 
3 379 380 376 
3 379 376 377 
3 373 381 378 
3 373 378 375 
3 380 382 374 
3 380 374 376 
3 371 383 381 
3 371 381 373 
3 382 384 372 
3 382 372 374 
3 370 385 371 
3 385 383 371 
3 384 385 372 
3 385 370 372 
3 386 387 240 
3 386 240 243 
3 241 388 389 
3 241 389 244 
3 386 243 390 
3 243 245 390 
3 248 244 391 
3 244 389 391 
3 390 245 392 
3 245 246 392 
3 247 248 393 
3 248 391 393 
3 392 394 390 
3 394 395 390 
3 396 397 391 
3 397 393 391 
3 390 395 386 
3 395 398 386 
3 399 396 389 
3 396 391 389 
3 386 398 400 
3 386 400 387 
3 401 399 389 
3 401 389 388 
3 387 400 402 
3 387 402 403 
3 402 401 388 
3 402 388 403 
3 404 405 406 
3 404 406 407 
3 406 405 408 
3 406 408 409 
3 410 407 411 
3 407 406 411 
3 406 409 412 
3 409 413 412 
3 404 407 414 
3 404 414 415 
3 416 409 408 
3 416 408 417 
3 407 410 414 
3 410 418 414 
3 419 413 416 
3 413 409 416 
3 410 411 420 
3 410 420 418 
3 421 412 413 
3 421 413 419 
3 411 406 422 
3 411 422 420 
3 422 406 412 
3 422 412 421 
3 404 415 405 
3 415 423 405 
3 423 417 405 
3 417 408 405 
3 415 395 423 
3 395 424 423 
3 424 396 423 
3 396 417 423 
3 420 422 402 
3 422 425 402 
3 425 422 402 
3 422 421 402 
3 418 420 400 
3 420 402 400 
3 402 421 401 
3 421 419 401 
3 414 418 398 
3 418 400 398 
3 401 419 399 
3 419 416 399 
3 415 414 398 
3 415 398 395 
3 399 416 417 
3 399 417 396 
3 426 383 427 
3 383 385 427 
3 385 384 427 
3 384 428 427 
3 429 394 427 
3 394 426 427 
3 428 397 427 
3 397 429 427 
3 429 424 394 
3 424 395 394 
3 396 424 397 
3 424 429 397 
3 430 431 383 
3 430 383 426 
3 384 432 433 
3 384 433 428 
3 426 394 392 
3 426 392 430 
3 393 397 428 
3 393 428 433 
3 434 381 431 
3 381 383 431 
3 384 382 432 
3 382 435 432 
3 436 378 381 
3 436 381 434 
3 382 380 437 
3 382 437 435 
3 438 379 378 
3 438 378 436 
3 380 379 438 
3 380 438 437 
3 366 362 439 
3 362 403 439 
3 403 363 439 
3 363 367 439 
3 439 440 364 
3 439 364 366 
3 365 440 439 
3 365 439 367 
3 440 441 364 
3 441 342 364 
3 345 442 365 
3 442 440 365 
3 403 362 360 
3 403 360 387 
3 361 363 403 
3 361 403 388 
3 443 387 360 
3 443 360 358 
3 361 388 444 
3 361 444 359 
3 445 443 356 
3 443 358 356 
3 359 444 357 
3 444 446 357 
3 447 445 354 
3 445 356 354 
3 357 446 355 
3 446 448 355 
3 449 447 352 
3 447 354 352 
3 355 448 353 
3 448 450 353 
3 451 449 350 
3 449 352 350 
3 353 450 351 
3 450 452 351 
3 453 451 348 
3 451 350 348 
3 351 452 349 
3 452 454 349 
3 455 453 346 
3 453 348 346 
3 349 454 347 
3 454 456 347 
3 455 346 343 
3 455 343 457 
3 344 347 456 
3 344 456 458 
3 457 343 441 
3 343 342 441 
3 345 344 442 
3 344 458 442 
3 440 289 441 
3 289 287 441 
3 288 289 442 
3 289 440 442 
3 441 287 457 
3 287 285 457 
3 286 288 458 
3 288 442 458 
3 457 285 455 
3 285 283 455 
3 284 286 456 
3 286 458 456 
3 455 283 281 
3 455 281 453 
3 282 284 456 
3 282 456 454 
3 453 281 451 
3 281 279 451 
3 280 282 452 
3 282 454 452 
3 451 279 449 
3 279 277 449 
3 278 280 450 
3 280 452 450 
3 449 277 447 
3 277 275 447 
3 276 278 448 
3 278 450 448 
3 447 275 273 
3 447 273 445 
3 274 276 448 
3 274 448 446 
3 445 273 443 
3 273 239 443 
3 242 274 444 
3 274 446 444 
3 443 239 240 
3 443 240 387 
3 241 242 444 
3 241 444 388 
3 430 392 246 
3 430 246 250 
3 247 393 433 
3 247 433 251 
3 431 430 250 
3 431 250 263 
3 251 433 432 
3 251 432 264 
3 434 431 263 
3 434 263 265 
3 264 432 435 
3 264 435 266 
3 436 434 267 
3 434 265 267 
3 266 435 268 
3 435 437 268 
3 438 436 270 
3 436 267 270 
3 268 437 270 
3 437 438 270 
3 3 459 460 
3 3 460 4 
3 461 462 2 
3 461 2 1 
3 4 460 463 
3 4 463 7 
3 464 461 1 
3 464 1 6 
3 7 463 465 
3 7 465 9 
3 466 464 6 
3 466 6 8 
3 9 465 467 
3 9 467 11 
3 468 466 8 
3 468 8 10 
3 11 467 13 
3 467 469 13 
3 470 468 12 
3 468 10 12 
3 13 469 15 
3 469 471 15 
3 472 470 14 
3 470 12 14 
3 15 471 17 
3 471 473 17 
3 474 472 16 
3 472 14 16 
3 17 473 3 
3 473 459 3 
3 462 474 2 
3 474 16 2 
3 475 459 476 
3 459 473 476 
3 474 462 477 
3 462 478 477 
3 479 475 480 
3 475 476 480 
3 477 478 481 
3 478 482 481 
3 480 476 483 
3 476 484 483 
3 485 477 486 
3 477 481 486 
3 476 473 484 
3 473 471 484 
3 472 474 485 
3 474 477 485 
3 484 471 487 
3 471 469 487 
3 470 472 488 
3 472 485 488 
3 483 484 489 
3 484 487 489 
3 488 485 490 
3 485 486 490 
3 489 487 491 
3 487 492 491 
3 493 488 494 
3 488 490 494 
3 487 469 467 
3 487 467 492 
3 468 470 488 
3 468 488 493 
3 492 467 495 
3 467 465 495 
3 466 468 496 
3 468 493 496 
3 491 492 497 
3 492 495 497 
3 496 493 498 
3 493 494 498 
3 497 495 499 
3 497 499 500 
3 501 496 498 
3 501 498 502 
3 495 465 463 
3 495 463 499 
3 464 466 496 
3 464 496 501 
3 499 463 460 
3 499 460 503 
3 461 464 501 
3 461 501 504 
3 500 499 503 
3 500 503 505 
3 504 501 502 
3 504 502 506 
3 505 503 475 
3 505 475 479 
3 478 504 506 
3 478 506 482 
3 503 460 459 
3 503 459 475 
3 462 461 504 
3 462 504 478 
