P2
# a comment
10 10
255
0	0	0	0	0	0	0	0	0	0
0	255	255	0	0	0	0	255	255	0
0	255	255	0	0	0	0	255	255	0
0	255	255	0	0	0	0	255	255	0
0	255	255	0	0	0	0	255	255	0
0	255	255	0	0	0	0	255	255	0
0	255	255	0	0	0	0	255	255	0
0	255	255	255	255	255	255	255	255	0
0	255	255	255	255	255	255	255	255	0
0	0	0	0	0	0	0	0	0	0
